<svg width="16" height="16" fill="none" xmlns="http://www.w3.org/2000/svg"><path fill-rule="evenodd" clip-rule="evenodd" d="M3.80799 6.19526c-.26035-.26035-.68246-.26035-.94281 0-.26035.26035-.26035.68246 0 .94281l4.66035 4.66033a.92223.92223 0 0 0 .00624.0063c.13069.1307.30215.1958.47344.1953.16997-.0005.33977-.0656.46945-.1953.00209-.002.00415-.0041.00621-.0062l4.66033-4.66043c.2604-.26035.2604-.68246 0-.94281-.2603-.26035-.6824-.26035-.9428 0L8.00321 10.3905 3.80799 6.19526Z" fill="#2D3440"/></svg>