<svg width="24" height="24" viewBox="0 0 24 24" fill="none" xmlns="http://www.w3.org/2000/svg"><path d="M12 0a6.007 6.007 0 0 0-5.9577 5.2941H6v11.9153h12V5.2941h-.0424A6.0066 6.0066 0 0 0 12 0Zm4.5882 15.7976H7.4118V9.2894a1.2636 1.2636 0 0 0 1.087.4518c.9106 0 1.5036-.5083 1.5036-1.1506v-.6141a.6068.6068 0 0 1 .8508-.6197.6075.6075 0 0 1 .3305.368.6074.6074 0 0 1 .0257.2517v2.3223a1.3208 1.3208 0 0 0 .4574.9829 1.319 1.319 0 0 0 1.0391.3089 1.3128 1.3128 0 0 0 1.3587-.7112 1.3127 1.3127 0 0 0 .1378-.5241v-1.56a.9517.9517 0 0 1 .5658-.9543.9532.9532 0 0 1 1.2857.5652.9548.9548 0 0 1 .0473.389.2812.2812 0 0 0 0 .0636.797.797 0 0 0 .4729.6283V15.84l.0141-.0424ZM10.9412 22.9412a1.0588 1.0588 0 1 0 2.1176 0v-5.0259h-2.1176v5.0259Z" fill="#2D3440"/></svg>